<mxfile host="app.diagrams.net" modified="2022-05-01T12:24:05.711Z" agent="5.0 (Windows)" etag="CPrzjBwFTYLxYeZoQVjv" version="17.4.0" type="github">
  <diagram id="xrfBSjKSAVuO6HyybGaG" name="Page-1">
    <mxGraphModel dx="2073" dy="696" grid="1" gridSize="10" guides="1" tooltips="1" connect="1" arrows="1" fold="1" page="1" pageScale="1" pageWidth="827" pageHeight="1169" math="0" shadow="0">
      <root>
        <mxCell id="0" />
        <mxCell id="1" parent="0" />
        <mxCell id="RTKTxEDjT1_JtIpoctLd-7" style="edgeStyle=none;rounded=0;orthogonalLoop=1;jettySize=auto;html=1;startArrow=none;startFill=0;endArrow=none;endFill=0;strokeColor=default;" edge="1" parent="1" source="sh4u5wu3QmJwmJBsvdZq-1" target="RTKTxEDjT1_JtIpoctLd-1">
          <mxGeometry relative="1" as="geometry" />
        </mxCell>
        <mxCell id="sh4u5wu3QmJwmJBsvdZq-1" value="格力电器" style="rounded=0;whiteSpace=wrap;html=1;" parent="1" vertex="1">
          <mxGeometry x="170" y="80" width="170" height="70" as="geometry" />
        </mxCell>
        <mxCell id="g9CgFwGWhWMwhlVcNYHZ-1" value="注册用户" style="rounded=0;whiteSpace=wrap;html=1;" parent="1" vertex="1">
          <mxGeometry x="-290" y="530" width="120" height="60" as="geometry" />
        </mxCell>
        <mxCell id="g9CgFwGWhWMwhlVcNYHZ-44" value="" style="rounded=0;orthogonalLoop=1;jettySize=auto;html=1;endArrow=classic;endFill=1;strokeColor=default;startArrow=none;startFill=0;exitX=0.215;exitY=1.004;exitDx=0;exitDy=0;exitPerimeter=0;entryX=0.549;entryY=-0.012;entryDx=0;entryDy=0;entryPerimeter=0;" parent="1" source="sh4u5wu3QmJwmJBsvdZq-1" target="g9CgFwGWhWMwhlVcNYHZ-3" edge="1">
          <mxGeometry x="0.0667" y="58" relative="1" as="geometry">
            <mxPoint x="216.8659691081216" y="190" as="sourcePoint" />
            <mxPoint x="-10" y="310" as="targetPoint" />
            <mxPoint as="offset" />
          </mxGeometry>
        </mxCell>
        <mxCell id="g9CgFwGWhWMwhlVcNYHZ-47" value="" style="edgeStyle=none;rounded=0;orthogonalLoop=1;jettySize=auto;html=1;startArrow=none;startFill=0;endArrow=none;endFill=0;strokeColor=default;entryX=0.594;entryY=-0.003;entryDx=0;entryDy=0;entryPerimeter=0;" parent="1" source="g9CgFwGWhWMwhlVcNYHZ-3" target="g9CgFwGWhWMwhlVcNYHZ-46" edge="1">
          <mxGeometry relative="1" as="geometry" />
        </mxCell>
        <mxCell id="g9CgFwGWhWMwhlVcNYHZ-48" style="edgeStyle=none;rounded=0;orthogonalLoop=1;jettySize=auto;html=1;startArrow=none;startFill=0;endArrow=classic;endFill=1;strokeColor=default;entryX=0.5;entryY=0;entryDx=0;entryDy=0;" parent="1" source="g9CgFwGWhWMwhlVcNYHZ-3" target="g9CgFwGWhWMwhlVcNYHZ-1" edge="1">
          <mxGeometry relative="1" as="geometry" />
        </mxCell>
        <mxCell id="g9CgFwGWhWMwhlVcNYHZ-3" value="输入信息" style="rounded=0;whiteSpace=wrap;html=1;" parent="1" vertex="1">
          <mxGeometry x="-110" y="300" width="120" height="60" as="geometry" />
        </mxCell>
        <mxCell id="g9CgFwGWhWMwhlVcNYHZ-7" value="商品搜索" style="rounded=0;whiteSpace=wrap;html=1;" parent="1" vertex="1">
          <mxGeometry x="90" y="530" width="120" height="60" as="geometry" />
        </mxCell>
        <mxCell id="g9CgFwGWhWMwhlVcNYHZ-24" style="rounded=0;orthogonalLoop=1;jettySize=auto;html=1;endArrow=classic;endFill=1;strokeColor=default;startArrow=oval;startFill=0;" parent="1" edge="1">
          <mxGeometry relative="1" as="geometry">
            <mxPoint x="30" y="230" as="sourcePoint" />
            <mxPoint x="120" y="170" as="targetPoint" />
          </mxGeometry>
        </mxCell>
        <mxCell id="RTKTxEDjT1_JtIpoctLd-8" value="身份信息" style="edgeLabel;html=1;align=center;verticalAlign=middle;resizable=0;points=[];" vertex="1" connectable="0" parent="g9CgFwGWhWMwhlVcNYHZ-24">
          <mxGeometry x="-0.1927" y="1" relative="1" as="geometry">
            <mxPoint as="offset" />
          </mxGeometry>
        </mxCell>
        <mxCell id="g9CgFwGWhWMwhlVcNYHZ-45" value="" style="rounded=0;orthogonalLoop=1;jettySize=auto;html=1;endArrow=none;endFill=0;strokeColor=default;startArrow=none;startFill=0;exitX=0.75;exitY=1;exitDx=0;exitDy=0;" parent="1" source="sh4u5wu3QmJwmJBsvdZq-1" edge="1">
          <mxGeometry x="0.0667" y="58" relative="1" as="geometry">
            <mxPoint x="245.80000000000018" y="190.15999999999997" as="sourcePoint" />
            <mxPoint x="520" y="320" as="targetPoint" />
            <mxPoint as="offset" />
          </mxGeometry>
        </mxCell>
        <mxCell id="g9CgFwGWhWMwhlVcNYHZ-46" value="用户登录" style="rounded=0;whiteSpace=wrap;html=1;" parent="1" vertex="1">
          <mxGeometry x="-90" y="530" width="120" height="60" as="geometry" />
        </mxCell>
        <mxCell id="RTKTxEDjT1_JtIpoctLd-15" style="edgeStyle=none;rounded=0;orthogonalLoop=1;jettySize=auto;html=1;startArrow=none;startFill=0;endArrow=classic;endFill=1;strokeColor=default;entryX=0.574;entryY=-0.003;entryDx=0;entryDy=0;entryPerimeter=0;" edge="1" parent="1" source="RTKTxEDjT1_JtIpoctLd-1" target="g9CgFwGWhWMwhlVcNYHZ-7">
          <mxGeometry relative="1" as="geometry">
            <mxPoint x="160" y="520" as="targetPoint" />
          </mxGeometry>
        </mxCell>
        <mxCell id="RTKTxEDjT1_JtIpoctLd-28" style="edgeStyle=none;rounded=0;orthogonalLoop=1;jettySize=auto;html=1;startArrow=none;startFill=0;endArrow=classic;endFill=1;strokeColor=default;" edge="1" parent="1" source="RTKTxEDjT1_JtIpoctLd-1" target="RTKTxEDjT1_JtIpoctLd-23">
          <mxGeometry relative="1" as="geometry" />
        </mxCell>
        <mxCell id="RTKTxEDjT1_JtIpoctLd-1" value="在线购物" style="rounded=0;whiteSpace=wrap;html=1;" vertex="1" parent="1">
          <mxGeometry x="180" y="300" width="120" height="60" as="geometry" />
        </mxCell>
        <mxCell id="RTKTxEDjT1_JtIpoctLd-2" value="输出信息" style="rounded=0;whiteSpace=wrap;html=1;" vertex="1" parent="1">
          <mxGeometry x="460" y="320" width="120" height="60" as="geometry" />
        </mxCell>
        <mxCell id="RTKTxEDjT1_JtIpoctLd-9" style="rounded=0;orthogonalLoop=1;jettySize=auto;html=1;endArrow=classic;endFill=1;strokeColor=default;startArrow=oval;startFill=0;" edge="1" parent="1">
          <mxGeometry relative="1" as="geometry">
            <mxPoint x="10" y="480" as="sourcePoint" />
            <mxPoint y="410" as="targetPoint" />
          </mxGeometry>
        </mxCell>
        <mxCell id="RTKTxEDjT1_JtIpoctLd-10" value="身份信息" style="edgeLabel;html=1;align=center;verticalAlign=middle;resizable=0;points=[];" vertex="1" connectable="0" parent="RTKTxEDjT1_JtIpoctLd-9">
          <mxGeometry x="-0.1927" y="1" relative="1" as="geometry">
            <mxPoint as="offset" />
          </mxGeometry>
        </mxCell>
        <mxCell id="RTKTxEDjT1_JtIpoctLd-11" style="rounded=0;orthogonalLoop=1;jettySize=auto;html=1;endArrow=classic;endFill=1;strokeColor=default;startArrow=oval;startFill=0;" edge="1" parent="1">
          <mxGeometry relative="1" as="geometry">
            <mxPoint x="-110" y="430" as="sourcePoint" />
            <mxPoint x="-170" y="490" as="targetPoint" />
          </mxGeometry>
        </mxCell>
        <mxCell id="RTKTxEDjT1_JtIpoctLd-12" value="账号密码" style="edgeLabel;html=1;align=center;verticalAlign=middle;resizable=0;points=[];" vertex="1" connectable="0" parent="RTKTxEDjT1_JtIpoctLd-11">
          <mxGeometry x="-0.1927" y="1" relative="1" as="geometry">
            <mxPoint as="offset" />
          </mxGeometry>
        </mxCell>
        <mxCell id="RTKTxEDjT1_JtIpoctLd-13" style="rounded=0;orthogonalLoop=1;jettySize=auto;html=1;endArrow=classic;endFill=1;strokeColor=default;startArrow=oval;startFill=0;" edge="1" parent="1">
          <mxGeometry relative="1" as="geometry">
            <mxPoint x="-60" y="420" as="sourcePoint" />
            <mxPoint x="-50" y="490" as="targetPoint" />
          </mxGeometry>
        </mxCell>
        <mxCell id="RTKTxEDjT1_JtIpoctLd-14" value="账号密码" style="edgeLabel;html=1;align=center;verticalAlign=middle;resizable=0;points=[];" vertex="1" connectable="0" parent="RTKTxEDjT1_JtIpoctLd-13">
          <mxGeometry x="-0.1927" y="1" relative="1" as="geometry">
            <mxPoint as="offset" />
          </mxGeometry>
        </mxCell>
        <mxCell id="RTKTxEDjT1_JtIpoctLd-16" style="rounded=0;orthogonalLoop=1;jettySize=auto;html=1;endArrow=classic;endFill=1;strokeColor=default;startArrow=oval;startFill=0;" edge="1" parent="1">
          <mxGeometry relative="1" as="geometry">
            <mxPoint x="-210" y="480" as="sourcePoint" />
            <mxPoint x="-160" y="420" as="targetPoint" />
          </mxGeometry>
        </mxCell>
        <mxCell id="RTKTxEDjT1_JtIpoctLd-17" value="身份信息" style="edgeLabel;html=1;align=center;verticalAlign=middle;resizable=0;points=[];" vertex="1" connectable="0" parent="RTKTxEDjT1_JtIpoctLd-16">
          <mxGeometry x="-0.1927" y="1" relative="1" as="geometry">
            <mxPoint as="offset" />
          </mxGeometry>
        </mxCell>
        <mxCell id="RTKTxEDjT1_JtIpoctLd-18" style="rounded=0;orthogonalLoop=1;jettySize=auto;html=1;endArrow=classic;endFill=1;strokeColor=default;startArrow=oval;startFill=0;" edge="1" parent="1">
          <mxGeometry relative="1" as="geometry">
            <mxPoint x="230" y="200" as="sourcePoint" />
            <mxPoint x="220" y="290" as="targetPoint" />
          </mxGeometry>
        </mxCell>
        <mxCell id="RTKTxEDjT1_JtIpoctLd-19" value="身份信息" style="edgeLabel;html=1;align=center;verticalAlign=middle;resizable=0;points=[];" vertex="1" connectable="0" parent="RTKTxEDjT1_JtIpoctLd-18">
          <mxGeometry x="-0.1927" y="1" relative="1" as="geometry">
            <mxPoint as="offset" />
          </mxGeometry>
        </mxCell>
        <mxCell id="RTKTxEDjT1_JtIpoctLd-20" style="rounded=0;orthogonalLoop=1;jettySize=auto;html=1;endArrow=classic;endFill=1;strokeColor=default;startArrow=oval;startFill=0;" edge="1" parent="1">
          <mxGeometry relative="1" as="geometry">
            <mxPoint x="270" y="280" as="sourcePoint" />
            <mxPoint x="280" y="190" as="targetPoint" />
          </mxGeometry>
        </mxCell>
        <mxCell id="RTKTxEDjT1_JtIpoctLd-21" value="订单消息" style="edgeLabel;html=1;align=center;verticalAlign=middle;resizable=0;points=[];" vertex="1" connectable="0" parent="RTKTxEDjT1_JtIpoctLd-20">
          <mxGeometry x="-0.1927" y="1" relative="1" as="geometry">
            <mxPoint as="offset" />
          </mxGeometry>
        </mxCell>
        <mxCell id="RTKTxEDjT1_JtIpoctLd-22" style="edgeStyle=none;rounded=0;orthogonalLoop=1;jettySize=auto;html=1;entryX=0.5;entryY=0;entryDx=0;entryDy=0;startArrow=none;startFill=0;endArrow=classic;endFill=1;strokeColor=default;" edge="1" parent="1" source="g9CgFwGWhWMwhlVcNYHZ-7" target="g9CgFwGWhWMwhlVcNYHZ-7">
          <mxGeometry relative="1" as="geometry" />
        </mxCell>
        <mxCell id="RTKTxEDjT1_JtIpoctLd-23" value="提交订单" style="rounded=0;whiteSpace=wrap;html=1;" vertex="1" parent="1">
          <mxGeometry x="260" y="530" width="120" height="60" as="geometry" />
        </mxCell>
        <mxCell id="RTKTxEDjT1_JtIpoctLd-24" style="rounded=0;orthogonalLoop=1;jettySize=auto;html=1;endArrow=classic;endFill=1;strokeColor=default;startArrow=oval;startFill=0;" edge="1" parent="1">
          <mxGeometry relative="1" as="geometry">
            <mxPoint x="190" y="400" as="sourcePoint" />
            <mxPoint x="145" y="490" as="targetPoint" />
          </mxGeometry>
        </mxCell>
        <mxCell id="RTKTxEDjT1_JtIpoctLd-25" value="搜索信息" style="edgeLabel;html=1;align=center;verticalAlign=middle;resizable=0;points=[];" vertex="1" connectable="0" parent="RTKTxEDjT1_JtIpoctLd-24">
          <mxGeometry x="-0.1927" y="1" relative="1" as="geometry">
            <mxPoint as="offset" />
          </mxGeometry>
        </mxCell>
        <mxCell id="RTKTxEDjT1_JtIpoctLd-26" style="rounded=0;orthogonalLoop=1;jettySize=auto;html=1;endArrow=classic;endFill=1;strokeColor=default;startArrow=oval;startFill=0;" edge="1" parent="1">
          <mxGeometry relative="1" as="geometry">
            <mxPoint x="190" y="490" as="sourcePoint" />
            <mxPoint x="230" y="410" as="targetPoint" />
          </mxGeometry>
        </mxCell>
        <mxCell id="RTKTxEDjT1_JtIpoctLd-27" value="商品信息" style="edgeLabel;html=1;align=center;verticalAlign=middle;resizable=0;points=[];" vertex="1" connectable="0" parent="RTKTxEDjT1_JtIpoctLd-26">
          <mxGeometry x="-0.1927" y="1" relative="1" as="geometry">
            <mxPoint as="offset" />
          </mxGeometry>
        </mxCell>
        <mxCell id="RTKTxEDjT1_JtIpoctLd-29" style="rounded=0;orthogonalLoop=1;jettySize=auto;html=1;endArrow=classic;endFill=1;strokeColor=default;startArrow=oval;startFill=0;" edge="1" parent="1">
          <mxGeometry relative="1" as="geometry">
            <mxPoint x="250" y="430" as="sourcePoint" />
            <mxPoint x="280" y="510" as="targetPoint" />
          </mxGeometry>
        </mxCell>
        <mxCell id="RTKTxEDjT1_JtIpoctLd-30" value="商品信息" style="edgeLabel;html=1;align=center;verticalAlign=middle;resizable=0;points=[];" vertex="1" connectable="0" parent="RTKTxEDjT1_JtIpoctLd-29">
          <mxGeometry x="-0.1927" y="1" relative="1" as="geometry">
            <mxPoint as="offset" />
          </mxGeometry>
        </mxCell>
        <mxCell id="RTKTxEDjT1_JtIpoctLd-31" style="rounded=0;orthogonalLoop=1;jettySize=auto;html=1;endArrow=classic;endFill=1;strokeColor=default;startArrow=oval;startFill=0;" edge="1" parent="1">
          <mxGeometry relative="1" as="geometry">
            <mxPoint x="330" y="500" as="sourcePoint" />
            <mxPoint x="300" y="410" as="targetPoint" />
          </mxGeometry>
        </mxCell>
        <mxCell id="RTKTxEDjT1_JtIpoctLd-32" value="订单消息" style="edgeLabel;html=1;align=center;verticalAlign=middle;resizable=0;points=[];" vertex="1" connectable="0" parent="RTKTxEDjT1_JtIpoctLd-31">
          <mxGeometry x="-0.1927" y="1" relative="1" as="geometry">
            <mxPoint as="offset" />
          </mxGeometry>
        </mxCell>
        <mxCell id="RTKTxEDjT1_JtIpoctLd-33" style="rounded=0;orthogonalLoop=1;jettySize=auto;html=1;endArrow=classic;endFill=1;strokeColor=default;startArrow=oval;startFill=0;" edge="1" parent="1">
          <mxGeometry relative="1" as="geometry">
            <mxPoint x="404" y="210" as="sourcePoint" />
            <mxPoint x="510" y="280" as="targetPoint" />
          </mxGeometry>
        </mxCell>
        <mxCell id="RTKTxEDjT1_JtIpoctLd-34" value="订单消息" style="edgeLabel;html=1;align=center;verticalAlign=middle;resizable=0;points=[];" vertex="1" connectable="0" parent="RTKTxEDjT1_JtIpoctLd-33">
          <mxGeometry x="-0.1927" y="1" relative="1" as="geometry">
            <mxPoint as="offset" />
          </mxGeometry>
        </mxCell>
      </root>
    </mxGraphModel>
  </diagram>
</mxfile>
